<svg width="19" height="20" viewBox="0 0 19 20" fill="none" xmlns="http://www.w3.org/2000/svg">
<path d="M14.9893 8.09257C14.8911 8.29073 14.7602 8.54703 14.5997 8.84451C14.2048 9.57596 13.6371 10.5443 12.9408 11.5062C12.2402 12.474 11.4361 13.3982 10.577 14.0714C9.71315 14.7483 8.87868 15.1061 8.09256 15.1061C4.21908 15.1061 1.07901 11.966 1.07901 8.09256C1.07901 4.21908 4.21908 1.07901 8.09256 1.07901C8.87868 1.07901 9.71315 1.43683 10.577 2.11377C11.4361 2.78692 12.2402 3.71113 12.9408 4.67897C13.6371 5.64086 14.2048 6.60917 14.5997 7.34062C14.7602 7.6381 14.8911 7.8944 14.9893 8.09257Z" stroke="#EF4234" stroke-width="2.15802"/>
<path d="M13.1715 13.8036L17.3679 18" stroke="#EF4234" stroke-width="2.15802" stroke-linecap="round"/>
</svg>
